<?xml version="1.0" standalone="no"?>
<!DOCTYPE svg PUBLIC "-//W3C//DTD SVG 20010904//EN"
 "http://www.w3.org/TR/2001/REC-SVG-20010904/DTD/svg10.dtd">
<svg version="1.0" xmlns="http://www.w3.org/2000/svg"
 width="86.000000pt" height="86.000000pt" viewBox="0 0 86.000000 86.000000"
 preserveAspectRatio="xMidYMid meet">
<metadata>
Created by potrace 1.14, written by Peter Selinger 2001-2017
</metadata>
<g transform="translate(0.000000,86.000000) scale(0.100000,-0.100000)"
fill="#000000" stroke="none">
<path d="M255 852 c-2 -2 -9 -5 -17 -6 -86 -18 -157 -75 -200 -163 l-32 -65 0
-187 -1 -186 35 -70 c38 -75 96 -129 167 -153 38 -13 363 -20 409 -9 40 10
109 49 142 81 30 27 71 91 78 121 14 53 17 90 17 220 0 83 -3 162 -6 176 -9
45 -54 123 -89 155 -28 27 -126 85 -143 84 -3 0 -6 0 -7 1 -8 3 -350 4 -353 1z"/>
</g>
</svg>
